<svg id="visual" viewBox="0 0 900 600" width="900" height="600" xmlns="http://www.w3.org/2000/svg" xmlns:xlink="http://www.w3.org/1999/xlink" version="1.1"><rect x="0" y="0" width="900" height="600" fill="#001122"></rect><defs><linearGradient id="grad1_0" x1="33.3%" y1="0%" x2="100%" y2="100%"><stop offset="20%" stop-color="#5e4ff7" stop-opacity="1"></stop><stop offset="80%" stop-color="#5e4ff7" stop-opacity="1"></stop></linearGradient></defs><defs><linearGradient id="grad1_1" x1="33.3%" y1="0%" x2="100%" y2="100%"><stop offset="20%" stop-color="#5e4ff7" stop-opacity="1"></stop><stop offset="80%" stop-color="#0048c4" stop-opacity="1"></stop></linearGradient></defs><defs><linearGradient id="grad1_2" x1="33.3%" y1="0%" x2="100%" y2="100%"><stop offset="20%" stop-color="#00398d" stop-opacity="1"></stop><stop offset="80%" stop-color="#0048c4" stop-opacity="1"></stop></linearGradient></defs><defs><linearGradient id="grad1_3" x1="33.3%" y1="0%" x2="100%" y2="100%"><stop offset="20%" stop-color="#00398d" stop-opacity="1"></stop><stop offset="80%" stop-color="#002656" stop-opacity="1"></stop></linearGradient></defs><defs><linearGradient id="grad1_4" x1="33.3%" y1="0%" x2="100%" y2="100%"><stop offset="20%" stop-color="#001122" stop-opacity="1"></stop><stop offset="80%" stop-color="#002656" stop-opacity="1"></stop></linearGradient></defs><defs><linearGradient id="grad2_0" x1="0%" y1="0%" x2="66.7%" y2="100%"><stop offset="20%" stop-color="#5e4ff7" stop-opacity="1"></stop><stop offset="80%" stop-color="#5e4ff7" stop-opacity="1"></stop></linearGradient></defs><defs><linearGradient id="grad2_1" x1="0%" y1="0%" x2="66.7%" y2="100%"><stop offset="20%" stop-color="#0048c4" stop-opacity="1"></stop><stop offset="80%" stop-color="#5e4ff7" stop-opacity="1"></stop></linearGradient></defs><defs><linearGradient id="grad2_2" x1="0%" y1="0%" x2="66.7%" y2="100%"><stop offset="20%" stop-color="#0048c4" stop-opacity="1"></stop><stop offset="80%" stop-color="#00398d" stop-opacity="1"></stop></linearGradient></defs><defs><linearGradient id="grad2_3" x1="0%" y1="0%" x2="66.7%" y2="100%"><stop offset="20%" stop-color="#002656" stop-opacity="1"></stop><stop offset="80%" stop-color="#00398d" stop-opacity="1"></stop></linearGradient></defs><defs><linearGradient id="grad2_4" x1="0%" y1="0%" x2="66.7%" y2="100%"><stop offset="20%" stop-color="#002656" stop-opacity="1"></stop><stop offset="80%" stop-color="#001122" stop-opacity="1"></stop></linearGradient></defs><g transform="translate(900, 0)"><path d="M0 297.5C-52.9 290.2 -105.8 282.9 -148.7 257.6C-191.6 232.3 -224.6 188.9 -247.7 143C-270.8 97.1 -284.1 48.5 -297.5 0L0 0Z" fill="#001c3b"></path><path d="M0 238C-42.3 232.2 -84.7 226.3 -119 206.1C-153.3 185.8 -179.6 151.2 -198.1 114.4C-216.6 77.6 -227.3 38.8 -238 0L0 0Z" fill="#003071"></path><path d="M0 178.5C-31.7 174.1 -63.5 169.8 -89.2 154.6C-115 139.4 -134.7 113.4 -148.6 85.8C-162.5 58.2 -170.5 29.1 -178.5 0L0 0Z" fill="#0041a9"></path><path d="M0 119C-21.2 116.1 -42.3 113.2 -59.5 103C-76.7 92.9 -89.8 75.6 -99.1 57.2C-108.3 38.8 -113.7 19.4 -119 0L0 0Z" fill="#374dde"></path><path d="M0 59.5C-10.6 58 -21.2 56.6 -29.7 51.5C-38.3 46.5 -44.9 37.8 -49.5 28.6C-54.2 19.4 -56.8 9.7 -59.5 0L0 0Z" fill="#5e4ff7"></path></g><g transform="translate(0, 600)"><path d="M0 -297.5C51.9 -289.6 103.7 -281.7 148.7 -257.6C193.7 -233.5 231.8 -193.1 255.5 -147.5C279.1 -101.9 288.3 -50.9 297.5 0L0 0Z" fill="#001c3b"></path><path d="M0 -238C41.5 -231.7 83 -225.4 119 -206.1C155 -186.8 185.5 -154.5 204.4 -118C223.3 -81.5 230.6 -40.7 238 0L0 0Z" fill="#003071"></path><path d="M0 -178.5C31.1 -173.8 62.2 -169 89.2 -154.6C116.2 -140.1 139.1 -115.9 153.3 -88.5C167.5 -61.1 173 -30.6 178.5 0L0 0Z" fill="#0041a9"></path><path d="M0 -119C20.7 -115.8 41.5 -112.7 59.5 -103C77.5 -93.4 92.7 -77.3 102.2 -59C111.6 -40.7 115.3 -20.4 119 0L0 0Z" fill="#374dde"></path><path d="M0 -59.5C10.4 -57.9 20.7 -56.3 29.7 -51.5C38.7 -46.7 46.4 -38.6 51.1 -29.5C55.8 -20.4 57.7 -10.2 59.5 0L0 0Z" fill="#5e4ff7"></path></g></svg>